<svg xmlns="http://www.w3.org/2000/svg" style="display: none;">
  <symbol id="review-session" viewBox="0 -960 960 960">
    <path
      d="M130-130v-65.77l60-60V-130h-60Zm160 0v-225.77l60-60V-130h-60Zm160 0v-285.77l60 61V-130h-60Zm160 0v-224.77l60-60V-130h-60Zm160 0v-385.77l60-60V-130h-60ZM130-351.23v-84.54l270-270 160 160 270-270v84.54l-270 270-160-160-270 270Z" />
  </symbol>
  <symbol id="kra" viewBox="0 -960 960 960">
    <path
      d="M518.69-858q135.97 13.25 231.52 108.36 95.56 95.1 108.79 231.18H587.61q-9-24.46-26.73-42.62-17.73-18.15-42.19-26.71V-858Zm60 75.08v159.08q13.31 9.38 24.85 20.73 11.54 11.34 20.54 24.65h159.84q-22.46-73.46-77.11-128.12-54.66-54.65-128.12-76.34ZM443.31-858v270.02q-34.46 12.37-55.31 42.21-20.85 29.84-20.85 65.84 0 36.01 21.04 64.78 21.04 28.76 55.12 41.13V-102Q297-116.62 199-224.65q-98-108.04-98-255.4 0-147.35 98-255.73Q297-844.15 443.31-858Zm-60 75.08q-99.46 29.61-160.89 113.69Q161-585.15 161-480q0 105.15 61.42 189.23 61.43 84.08 160.89 114.92v-161.84q-34.92-25.54-55.54-62.43-20.61-36.88-20.61-80.07 0-43.19 20.42-80.27t55.73-62.62v-159.84Zm204.3 340.61H859q-13.31 135.93-108.84 231.47Q654.62-115.31 518.69-102v-272.08q24.73-8.57 42.33-26.17 17.59-17.6 26.59-42.06Zm36.47 60q-9.16 12.92-20.62 24.27t-24.77 20.35v160.61q73.85-22.07 128.31-76.73 54.46-54.65 76.92-128.5H624.08Zm-316.92-97.07Zm316.92-99.08Zm0 196.15Z" />
  </symbol>
  <symbol id="assign-kra" viewBox="0 -960 960 960">
    <path
      d="M200-120q-33 0-56.5-23.5T120-200v-560q0-33 23.5-56.5T200-840h168q13-36 43.5-58t68.5-22q38 0 68.5 22t43.5 58h168q33 0 56.5 23.5T840-760v268q-19-9-39-15.5t-41-9.5v-243H200v560h242q3 22 9.5 42t15.5 38H200Zm0-120v40-560 243-3 280Zm80-40h163q3-21 9.5-41t14.5-39H280v80Zm0-160h244q32-30 71.5-50t84.5-27v-3H280v80Zm0-160h400v-80H280v80Zm200-190q13 0 21.5-8.5T510-820q0-13-8.5-21.5T480-850q-13 0-21.5 8.5T450-820q0 13 8.5 21.5T480-790ZM720-40q-83 0-141.5-58.5T520-240q0-83 58.5-141.5T720-440q83 0 141.5 58.5T920-240q0 83-58.5 141.5T720-40Zm-20-80h40v-100h100v-40H740v-100h-40v100H600v40h100v100Z" />
  </symbol>
  <symbol id="weight" viewBox="0 -960 960 960">
    <path
      d="M240-200h480l-57-400H297l-57 400Zm240-480q17 0 28.5-11.5T520-720q0-17-11.5-28.5T480-760q-17 0-28.5 11.5T440-720q0 17 11.5 28.5T480-680Zm113 0h70q30 0 52 20t27 49l57 400q5 36-18.5 63.5T720-120H240q-37 0-60.5-27.5T161-211l57-400q5-29 27-49t52-20h70q-3-10-5-19.5t-2-20.5q0-50 35-85t85-35q50 0 85 35t35 85q0 11-2 20.5t-5 19.5ZM240-200h480-480Z" />
  </symbol>
  <symbol id='status-in-progress' viewBox="0 0 16 16">
    <g transform="rotate(-90deg)">
      <path
        fill-rule="evenodd"
        clip-rule="evenodd"
        d="M8 14C11.3137 14 14 11.3137 14 8C14 4.68629 11.3137 2 8 2C4.68629 2 2 4.68629 2 8C2 11.3137 4.68629 14 8 14ZM8 15C11.866 15 15 11.866 15 8C15 4.13401 11.866 1 8 1C4.13401 1 1 4.13401 1 8C1 11.866 4.13401 15 8 15Z"
      />
      <path d="M 4.5 4.5 L 9 4.5 A 4.5 4.5 0 0 1 4.54499925000375 8.999775001874994 Z" transform="translate(3.5,3.5)"/>
    </g>
  </symbol>
</svg>
