<svg xmlns="http://www.w3.org/2000/svg" style="display: none;">
  <symbol id="review-session" viewBox="0 -960 960 960">
    <path
      d="M130-130v-65.77l60-60V-130h-60Zm160 0v-225.77l60-60V-130h-60Zm160 0v-285.77l60 61V-130h-60Zm160 0v-224.77l60-60V-130h-60Zm160 0v-385.77l60-60V-130h-60ZM130-351.23v-84.54l270-270 160 160 270-270v84.54l-270 270-160-160-270 270Z" />
  </symbol>
  <symbol id="kra" viewBox="0 -960 960 960">
    <path
      d="m250-531.08-134-78.23v-156.46L250-844l134 78.23v156.46l-134 78.23Zm0-60.92 82-46.77v-96.2l-82-48.11-82 46.77v97.54L250-592Zm405.38 58.08v-59.54L796-512.69v264.46L566-116 336-248.23v-264.46l140.61-80.77v59.54L388-482.23v203.58l178 102.73 178-102.73v-203.58l-88.62-51.69ZM540-432v-412h304l-68.08 98L844-648H592v216h-52Zm26 77.08ZM250-687.54Z" />
  </symbol>
  <symbol id="assign-kra" viewBox="0 -960 960 960">
    <path
      d="M200-120q-33 0-56.5-23.5T120-200v-560q0-33 23.5-56.5T200-840h168q13-36 43.5-58t68.5-22q38 0 68.5 22t43.5 58h168q33 0 56.5 23.5T840-760v268q-19-9-39-15.5t-41-9.5v-243H200v560h242q3 22 9.5 42t15.5 38H200Zm0-120v40-560 243-3 280Zm80-40h163q3-21 9.5-41t14.5-39H280v80Zm0-160h244q32-30 71.5-50t84.5-27v-3H280v80Zm0-160h400v-80H280v80Zm200-190q13 0 21.5-8.5T510-820q0-13-8.5-21.5T480-850q-13 0-21.5 8.5T450-820q0 13 8.5 21.5T480-790ZM720-40q-83 0-141.5-58.5T520-240q0-83 58.5-141.5T720-440q83 0 141.5 58.5T920-240q0 83-58.5 141.5T720-40Zm-20-80h40v-100h100v-40H740v-100h-40v100H600v40h100v100Z" />
  </symbol>
  <symbol id="weight" viewBox="0 -960 960 960">
    <path
      d="M264-216h432l-49-360H313l-49 360Zm216-432q20.4 0 34.2-13.8Q528-675.6 528-696q0-20.4-13.8-34.2Q500.4-744 480-744q-20.4 0-34.2 13.8Q432-716.4 432-696q0 20.4 13.8 34.2Q459.6-648 480-648Zm110 0h57q27.16 0 47.08 17.5Q714-613 718-586l49 360q5 32.44-16.39 57.22Q729.23-144 695.95-144H264.28q-33.28 0-54.78-24.78T193-226l49-360q4-27 23.92-44.5T313-648h57q-5-11-7.5-23t-2.5-25q0-50 35-85t85-35q50 0 85 35t35 85q0 13-2.5 25t-7.5 23ZM264-216h432-432Z" />
  </symbol>
  <symbol id="active" viewBox="0 -960 960 960">
    <path
      d="m242-200 200-280-200-280h98l200 280-200 280h-98Zm238 0 200-280-200-280h98l200 280-200 280h-98Z" />
  </symbol>
  <symbol id='status-in-progress' viewBox="0 0 16 16" fill="#5195D7">
    <path
      fill-rule="evenodd"
      clip-rule="evenodd"
      d="M8 14C11.3137 14 14 11.3137 14 8C14 4.68629 11.3137 2 8 2C4.68629 2 2 4.68629 2 8C2 11.3137 4.68629 14 8 14ZM8 15C11.866 15 15 11.866 15 8C15 4.13401 11.866 1 8 1C4.13401 1 1 4.13401 1 8C1 11.866 4.13401 15 8 15Z"
    />
    <path d="M 4.5 4.5 L 9 4.5 A 4.5 4.5 0 0 1 4.54499925000375 8.999775001874994 Z"
      transform="translate(8,8) rotate(-90) translate(-8,-8) translate(3.5,3.5)" />
  </symbol>
  <symbol id='status-concluded' viewBox="0 0 16 16" fill="#83AF12">
    <path
      d="M8,1C4.1,1,1,4.1,1,8c0,3.9,3.1,7,7,7c3.9,0,7-3.1,7-7C15,4.1,11.9,1,8,1z M8,14c-3.3,0-6-2.7-6-6s2.7-6,6-6s6,2.7,6,6S11.3,14,8,14z" />
    <path
      d="M10.6,6.1L7.5,9.2L5.9,7.6c-0.2-0.2-0.6-0.2-0.8,0s-0.2,0.6,0,0.8l2,2c0.1,0.1,0.3,0.2,0.4,0.2s0.3-0.1,0.4-0.2l3.5-3.5c0.2-0.2,0.2-0.6,0-0.8S10.8,5.8,10.6,6.1z" />
  </symbol>
  <symbol id='start-review-session' viewBox="0 -960 960 960">
    <path
      d="m226-559 78 33q14-28 29-54t33-52l-56-11-84 84Zm142 83 114 113q42-16 90-49t90-75q70-70 109.5-155.5T806-800q-72-5-158 34.5T492-656q-42 42-75 90t-49 90Zm178-65q-23-23-23-56.5t23-56.5q23-23 57-23t57 23q23 23 23 56.5T660-541q-23 23-57 23t-57-23Zm19 321 84-84-11-56q-26 18-52 32.5T532-299l33 79Zm313-653q19 121-23.5 235.5T708-419l20 99q4 20-2 39t-20 33L538-80l-84-197-171-171-197-84 167-168q14-14 33.5-20t39.5-2l99 20q104-104 218-147t235-24ZM157-321q35-35 85.5-35.5T328-322q35 35 34.5 85.5T327-151q-25 25-83.5 43T82-76q14-103 32-161.5t43-83.5Zm57 56q-10 10-20 36.5T180-175q27-4 53.5-13.5T270-208q12-12 13-29t-11-29q-12-12-29-11.5T214-265Z" />
  </symbol>
  <symbol id='score' viewBox="0 -960 960 960">
    <path
      d="M240-384h113l209-209q7-7.17 10.5-16.32 3.5-9.16 3.5-17.92 0-8.76-3.89-17.16T562-660l-45-45q-6-7-14.8-11t-18.4-4q-8.8 0-18.14 3.5Q456.31-713 449-706L240-496v112Zm288-243-45-45 45 45ZM288-432v-45l130-129 21 21 23 24-129 129h-45Zm151-153 23 24-44-45 21 21Zm-19 201h300v-72H492l-72 72ZM96-96v-696q0-29.7 21.15-50.85Q138.3-864 168-864h624q29.7 0 50.85 21.15Q864-821.7 864-792v480q0 29.7-21.15 50.85Q821.7-240 792-240H240L96-96Zm114-216h582v-480H168v522l42-42Zm-42 0v-480 480Z" />
  </symbol>
  <symbol id='edit-review' viewBox="0 -960 960 960">
    <path
      d="M216-144q-29.7 0-50.85-21.15Q144-186.3 144-216v-528q0-30.11 21-51.56Q186-817 216-816h346l-72 72H216v528h528v-274l72-72v346q0 29.7-21.15 50.85Q773.7-144 744-144H216Zm264-336Zm-96 96v-153l354-354q11-11 24-16t26.5-5q14.4 0 27.45 5 13.05 5 23.99 15.78L891-840q11 11 16 24.18t5 26.82q0 13.66-5.02 26.87-5.02 13.2-15.98 24.13L537-384H384Zm456-405-51-51 51 51ZM456-456h51l231-231-25-26-26-25-231 231v51Zm257-257-26-25 26 25 25 26-25-26Z" />
  </symbol>

  <symbol id="status-drafting" viewBox="1 1 14 14" fill="#D7D8DB">
    <path fill-rule="evenodd" clip-rule="evenodd"
      d="M12.5 5.36133L8 2.73633L3.5 5.36133L3.5 10.6382L8 13.2632L12.5 10.6382L12.5 5.36133ZM8.75581 1.44066C8.28876 1.16822 7.71124 1.16822 7.24419 1.44066L2.74419 4.06566C2.28337 4.33448 2 4.82783 2 5.36133V10.6382C2 11.1717 2.28337 11.6651 2.74419 11.9339L7.24419 14.5589C7.71124 14.8313 8.28876 14.8313 8.75581 14.5589L13.2558 11.9339C13.7166 11.6651 14 11.1717 14 10.6382V5.36133C14 4.82783 13.7166 4.33448 13.2558 4.06566L8.75581 1.44066Z" />
  </symbol>
  <symbol id="status-approved" viewBox="1 1 14 14" fill="#90EE90">
    <path fill-rule="evenodd" clip-rule="evenodd"
      d="M12.5 5.125L8 2.5L3.5 5.125L3.5 10.4019L8 13.0269L12.5 10.4019L12.5 5.125ZM8.75581 1.20433C8.28876 0.93189 7.71124 0.931889 7.24419 1.20433L2.74419 3.82933C2.28337 4.09815 2 4.5915 2 5.125V10.4019C2 10.9354 2.28337 11.4287 2.74419 11.6976L7.24419 14.3226C7.71124 14.595 8.28876 14.595 8.75581 14.3226L13.2558 11.6976C13.7166 11.4287 14 10.9354 14 10.4019V5.125C14 4.5915 13.7166 4.09815 13.2558 3.82933L8.75581 1.20433Z" />
    <path fill-rule="evenodd" clip-rule="evenodd"
      d="M10.7381 5.69424C11.0526 5.96381 11.089 6.43728 10.8194 6.75178L7.81944 10.2518C7.68349 10.4104 7.48754 10.5051 7.27878 10.5131C7.07003 10.5212 6.86739 10.4417 6.71967 10.294L5.21967 8.79402C4.92678 8.50112 4.92678 8.02625 5.21967 7.73336C5.51256 7.44046 5.98744 7.44046 6.28033 7.73336L7.20764 8.66066L9.68056 5.77559C9.95012 5.4611 10.4236 5.42468 10.7381 5.69424Z" />
  </symbol>
  <symbol id="status-cancelled" viewBox="1 1 14 14" fill="#8A8F98">
    <path
      d="M5.96967 5.96967C6.26256 5.67678 6.73744 5.67678 7.03033 5.96967L8 6.93934L8.96967 5.96967C9.26256 5.67678 9.73744 5.67678 10.0303 5.96967C10.3232 6.26256 10.3232 6.73744 10.0303 7.03033L9.06066 8L10.0303 8.96967C10.3232 9.26256 10.3232 9.73744 10.0303 10.0303C9.73744 10.3232 9.26256 10.3232 8.96967 10.0303L8 9.06066L7.03033 10.0303C6.73744 10.3232 6.26256 10.3232 5.96967 10.0303C5.67678 9.73744 5.67678 9.26256 5.96967 8.96967L6.93934 8L5.96967 7.03033C5.67678 6.73744 5.67678 6.26256 5.96967 5.96967Z" />
    <path fill-rule="evenodd" clip-rule="evenodd"
      d="M8.75581 1.21148C8.28876 0.929507 7.71124 0.929507 7.24419 1.21148L2.74419 3.92829C2.28337 4.20651 2 4.71711 2 5.26927V10.7307C2 11.2829 2.28337 11.7935 2.74419 12.0717L7.24419 14.7885C7.71124 15.0705 8.28876 15.0705 8.75581 14.7885L13.2558 12.0717C13.7166 11.7935 14 11.2829 14 10.7307V5.26927C14 4.71711 13.7166 4.20651 13.2558 3.92829L8.75581 1.21148ZM12.5 5.26928L8 2.55246L3.5 5.26927L3.5 10.7307L8 13.4475L12.5 10.7307L12.5 5.26928Z" />
  </symbol>
  <symbol id="status-need-changes" viewBox="1 1 14 14" fill="#F2C94C">
    <path
      d="M8.3779 4.74233C8.14438 4.60607 7.85562 4.60607 7.6221 4.74233L5.37209 6.05513C5.14168 6.18957 5 6.4363 5 6.70311V9.34216C5 9.60897 5.14168 9.85573 5.37209 9.99016L7.6221 11.303C7.85562 11.4392 8.14438 11.4392 8.3779 11.303L10.6279 9.99016C10.8583 9.85573 11 9.60897 11 9.34216V6.70311C11 6.4363 10.8583 6.18957 10.6279 6.05513L8.3779 4.74233Z" />
    <path fill-rule="evenodd" clip-rule="evenodd"
      d="M7.24419 1.44066C7.71124 1.16822 8.28876 1.16822 8.75581 1.44066L13.2558 4.06566C13.7166 4.33448 14 4.82783 14 5.36133V10.6382C14 11.1717 13.7166 11.6651 13.2558 11.9339L8.75581 14.5589C8.28876 14.8313 7.71124 14.8313 7.24419 14.5589L2.74419 11.9339C2.28337 11.6651 2 11.1717 2 10.6382V5.36133C2 4.82783 2.28337 4.33448 2.74419 4.06566L7.24419 1.44066ZM8 2.73633L12.5 5.36133V10.6382L8 13.2632L3.5 10.6382V5.36133L8 2.73633Z" />
  </symbol>
  <symbol id="conclude-review-session" viewBox="0 -960 960 960">
    <path
      d="M320-600q17 0 28.5-11.5T360-640q0-17-11.5-28.5T320-680q-17 0-28.5 11.5T280-640q0 17 11.5 28.5T320-600Zm0 160q17 0 28.5-11.5T360-480q0-17-11.5-28.5T320-520q-17 0-28.5 11.5T280-480q0 17 11.5 28.5T320-440Zm0 160q17 0 28.5-11.5T360-320q0-17-11.5-28.5T320-360q-17 0-28.5 11.5T280-320q0 17 11.5 28.5T320-280ZM200-120q-33 0-56.5-23.5T120-200v-560q0-33 23.5-56.5T200-840h440l200 200v440q0 33-23.5 56.5T760-120H200Zm0-80h560v-400H600v-160H200v560Zm0-560v160-160 560-560Z" />
  </symbol>
  <symbol id="employee-kra" viewBox="0 -960 960 960">
    <path
      d="M520-520h278q-15-110-91.5-186.5T520-798v278Zm-80 358v-636q-121 15-200.5 105.5T160-480q0 122 79.5 212.5T440-162Zm80 0q110-14 187-91t91-187H520v278Zm-40-318Zm0 400q-83 0-156-31.5T197-197q-54-54-85.5-127T80-480q0-83 31.5-156T197-763q54-54 127-85.5T480-880q83 0 155.5 31.5t127 86q54.5 54.5 86 127T880-480q0 82-31.5 155T763-197.5q-54 54.5-127 86T480-80Z" />
  </symbol>
  <symbol id="progress" viewBox="0 -960 960 960">
    <path d="m140-220-60-60 300-300 160 160 284-320 56 56-340 384-160-160-240 240Z" />
  </symbol>
  <symbol id="time-left" viewBox="0 -960 960 960">
    <path
      d="M600-160q-134 0-227-93t-93-227q0-133 93-226.5T600-800q133 0 226.5 93.5T920-480q0 134-93.5 227T600-160Zm0-80q100 0 170-70t70-170q0-100-70-170t-170-70q-100 0-170 70t-70 170q0 100 70 170t170 70Zm91-91 57-57-108-108v-144h-80v177l131 132ZM80-600v-80h160v80H80ZM40-440v-80h200v80H40Zm40 160v-80h160v80H80Zm520-200Z" />
  </symbol>
  <symbol id="kpi" viewBox="0 -960 960 960">
    <path
      d="M120-120v-80l80-80v160h-80Zm160 0v-240l80-80v320h-80Zm160 0v-320l80 81v239h-80Zm160 0v-239l80-80v319h-80Zm160 0v-400l80-80v480h-80ZM120-327v-113l280-280 160 160 280-280v113L560-447 400-607 120-327Z" />
  </symbol>
  <symbol id="blocked-task" viewBox="0 -960 960 960" fill='#BD4C31'>
    <path
      d="M819-28 701-146q-48 32-103.5 49T480-80q-83 0-156-31.5T197-197q-54-54-85.5-127T80-480q0-62 17-117.5T146-701L27-820l57-57L876-85l-57 57ZM480-160q45 0 85.5-12t76.5-33L487-360l-63 64-170-170 56-56 114 114 7-8-226-226q-21 36-33 76.5T160-480q0 133 93.5 226.5T480-160Zm335-100-59-59q21-35 32.5-75.5T800-480q0-133-93.5-226.5T480-800q-45 0-85.5 11.5T319-756l-59-59q48-31 103.5-48T480-880q83 0 156 31.5T763-763q54 54 85.5 127T880-480q0 61-17 116.5T815-260ZM602-474l-56-56 104-104 56 56-104 104Zm-64-64ZM424-424Z" />
  </symbol>
  <symbol id="reports" viewBox="0 -960 960 960">
    <path
      d="M480-560h200v-80H480v80Zm0 240h200v-80H480v80ZM360-520q33 0 56.5-23.5T440-600q0-33-23.5-56.5T360-680q-33 0-56.5 23.5T280-600q0 33 23.5 56.5T360-520Zm0 240q33 0 56.5-23.5T440-360q0-33-23.5-56.5T360-440q-33 0-56.5 23.5T280-360q0 33 23.5 56.5T360-280ZM200-120q-33 0-56.5-23.5T120-200v-560q0-33 23.5-56.5T200-840h560q33 0 56.5 23.5T840-760v560q0 33-23.5 56.5T760-120H200Zm0-80h560v-560H200v560Zm0-560v560-560Z" />
  </symbol>
</svg>
