<svg xmlns="http://www.w3.org/2000/svg" style="display: none;">
  <symbol id="teams" viewBox="0 -960 960 960">
    <path
      d="M165.31-154q-46.16 0-78.46-32.31-32.31-32.31-32.31-78.46 0-46.15 32.31-78.46 32.3-32.31 78.46-32.31 14.86 0 28.89 3.19 14.03 3.2 26.8 10.35l159.23-217.94q-17-18.21-26-41.55-9-23.33-9-49.36 0-56.53 39.12-95.65 39.11-39.11 95.65-39.11 56.54 0 95.65 39.11 39.12 39.12 39.12 96.1 0 25.73-9 48.99t-26 41.47l158.85 218.33q12.76-7.16 26.92-10.54 14.16-3.39 29.15-3.39 46.16 0 78.46 32.31 32.31 32.31 32.31 78.46 0 46.15-32.31 78.46Q840.85-154 794.69-154q-46.15 0-78.46-32.31-32.31-32.31-32.31-78.46 0-16.77 5.16-30.96 5.15-14.19 13.69-27.19L537.31-550.46q-7.46 5.07-15.1 7.5-7.64 2.42-16.21 3.56v167.34q37 8.14 60.88 37.6 23.89 29.46 23.89 69.31 0 46.15-32.31 78.46-32.31 32.3-78.46 32.3-46.15 0-78.46-32.3-32.31-32.31-32.31-78.46 0-39.85 23.89-69.5Q417-364.31 454-372.23V-539.4q-8.93-1.14-16.89-3.56-7.96-2.43-14.42-7.5L257.84-322.92q8.54 13 13.39 27.19 4.85 14.19 4.85 30.96 0 46.15-32.31 78.46Q211.46-154 165.31-154Zm0-52q24.63 0 41.7-17.07 17.07-17.07 17.07-41.7 0-24.63-17.07-41.7-17.07-17.07-41.7-17.07-24.63 0-41.7 17.07-17.07 17.07-17.07 41.7 0 24.63 17.07 41.7Q140.68-206 165.31-206ZM480-670.85Zm0 464.47q24.63 0 41.7-17.07 17.07-17.07 17.07-41.7 0-24.64-17.07-41.7-17.07-17.07-41.7-17.07-24.63 0-41.7 17.07-17.07 17.06-17.07 41.7 0 24.63 17.07 41.7 17.07 17.07 41.7 17.07Zm314.69.38q24.63 0 41.7-17.07 17.07-17.07 17.07-41.7 0-24.63-17.07-41.7-17.07-17.07-41.7-17.07-24.63 0-41.7 17.07-17.07 17.07-17.07 41.7 0 24.63 17.07 41.7Q770.06-206 794.69-206Zm-629.38-58.77Zm314.69-.38Zm314.69.38ZM480.21-588.08q34.23 0 58.4-24.37 24.16-24.38 24.16-58.61 0-34.23-24.38-58.39-24.37-24.17-58.6-24.17-34.23 0-58.4 24.38-24.16 24.38-24.16 58.61 0 34.23 24.38 58.39 24.37 24.16 58.6 24.16Z" />
  </symbol>
  <symbol id="home" viewBox="0 -960 960 960">
    <path
      d="M264-216h109.85v-237.69h212.3V-216H696v-348L480-726.77 264-564v348Zm-52 52v-426l268-201.77L748-590v426H534.15v-237.69h-108.3V-164H212Zm268-307.38Z" />
  </symbol>
  <symbol id="add" viewBox="0 -960 960 960">
    <path d="M454-454H260v-52h194v-194h52v194h194v52H506v194h-52v-194Z" />
  </symbol>
  <symbol id="my-teams" viewBox="0 -960 960 960">
    <path
      d="M71.93-187.69v-88.93q0-30.92 15.96-55.19 15.96-24.27 42.63-37.76 57.02-27.89 114.67-43.01 57.66-15.11 126.73-15.11 69.08 0 126.73 15.11 57.66 15.12 114.68 43.01 26.67 13.49 42.63 37.76 15.96 24.27 15.96 55.19v88.93H71.93Zm679.99 0v-93.85q0-39.38-19.28-75.07-19.29-35.68-54.72-61.23 40.23 6 76.39 18.57 36.15 12.58 69 29.73 31 16.54 47.88 38.99 16.88 22.44 16.88 49.01v93.85H751.92Zm-380-304.62q-57.75 0-98.87-41.12-41.12-41.13-41.12-98.88 0-57.75 41.12-98.87 41.12-41.13 98.87-41.13 57.75 0 98.88 41.13 41.12 41.12 41.12 98.87 0 57.75-41.12 98.88-41.13 41.12-98.88 41.12Zm345.38-140q0 57.75-41.12 98.88-41.12 41.12-98.87 41.12-6.77 0-17.23-1.54-10.47-1.54-17.23-3.38 23.66-28.45 36.37-63.12 12.7-34.67 12.7-72 0-37.34-12.96-71.73-12.96-34.38-36.11-63.3 8.61-3.08 17.23-4 8.61-.93 17.23-.93 57.75 0 98.87 41.13 41.12 41.12 41.12 98.87ZM131.92-247.69h480v-28.93q0-12.53-6.27-22.3-6.26-9.77-19.88-17.08-49.38-25.46-101.69-38.58-52.31-13.11-112.16-13.11-59.84 0-112.15 13.11-52.31 13.12-101.69 38.58-13.62 7.31-19.89 17.08-6.27 9.77-6.27 22.3v28.93Zm240-304.62q33 0 56.5-23.5t23.5-56.5q0-33-23.5-56.5t-56.5-23.5q-33 0-56.5 23.5t-23.5 56.5q0 33 23.5 56.5t56.5 23.5Zm0 304.62Zm0-384.62Z" />
  </symbol>
  <symbol id="all-teams" viewBox="0 -960 960 960">
    <path d="M20-248.46v-48.77q0-39.92 41.69-65.58 41.7-25.65 108.7-25.65 11.07 0 22.3.69t22.62 2.69q-11.69 18.7-17.35 38.81-5.65 20.12-5.65 41.27v56.54H20Zm240 0v-55q0-28.09 15.77-51.35 15.77-23.27 45.46-40.57 29.69-17.31 70.16-25.96 40.46-8.66 88.46-8.66 48.92 0 89.38 8.66 40.46 8.65 70.15 25.96 29.7 17.3 45.16 40.57Q700-331.55 700-303.46v55H260Zm507.69 0v-56.42q0-22.57-5.34-42.54-5.35-19.96-16.04-37.66 11.77-2 22.5-2.69t21.19-.69q67 0 108.5 25.35 41.5 25.34 41.5 65.88v48.77H767.69Zm-444.61-60h314.46v-4.23q-6.15-24.23-51.08-40.77Q541.54-370 480-370q-61.54 0-106.46 16.54-44.93 16.54-50.46 40.77v4.23Zm-152.8-118.85q-28.28 0-48.32-20.11t-20.04-48.35q0-28.61 20.12-48.34 20.11-19.73 48.35-19.73 28.61 0 48.53 19.73 19.93 19.73 19.93 48.46 0 27.88-19.72 48.11-19.71 20.23-48.85 20.23Zm619.72 0q-28 0-48.23-20.23-20.23-20.23-20.23-48.11 0-28.73 20.23-48.46t48.3-19.73q28.93 0 48.66 19.73 19.73 19.73 19.73 48.34 0 28.24-19.68 48.35-19.68 20.11-48.78 20.11ZM480.14-460q-43.22 0-73.6-30.29-30.38-30.28-30.38-73.55 0-44.14 30.28-73.99 30.29-29.86 73.56-29.86 44.13 0 73.99 29.82 29.85 29.81 29.85 73.89 0 43.21-29.81 73.6Q524.21-460 480.14-460Zm.05-60q18.35 0 31-12.84 12.66-12.85 12.66-31.2 0-18.34-12.61-31-12.61-12.65-31.24-12.65-18.15 0-31 12.61-12.85 12.6-12.85 31.24 0 18.15 12.85 31Q461.85-520 480.19-520Zm.43 211.54ZM480-563.84Z"/>
  </symbol>
</svg>
